<svg class="gr-figure" xmlns="http://www.w3.org/2000/svg" viewBox="0 0 1000 525" width="1000" height="525" data-mobile-viewbox="0 0 375 1040" role="img" aria-labelledby="calculation-map-title calculation-map-desc"><title id="calculation-map-title">From a question to a measurement</title><desc id="calculation-map-desc">Six stages organize a general relativity calculation, beginning with the measurement you want to predict. A clock comparison may need only the metric; a trajectory can need the connection; a tidal measurement needs curvature. The chosen observer and a familiar limit make the prediction physically interpretable.</desc><style>.gr-figure [data-compact-only]{display:none}.gr-figure.is-compact [data-compact-only]{display:inline}.gr-figure text{font-family:Manrope,Arial,sans-serif}.gr-figure .math-geometry{color:var(--geometry,#007c78)}.gr-figure .math-curvature{color:var(--curvature,#7951bb)}.gr-figure .math-transport{color:var(--transport,#275dc5)}.gr-figure .math-matter{color:var(--matter,#a25e00)}.gr-figure .math-observer{color:var(--observer,#bb365d)}@media(prefers-color-scheme:dark){svg.gr-figure:not(.embedded){--ink:#ebedf0;--muted:#a8b0bf;--geometry:#64d9c9;--curvature:#bd9cff;--transport:#8bb5ff;--matter:#f3c16e;--observer:#ff99b4;--line:#343e4f;--paper:#141b29;--figure-bg:#192231;--figure-tint:#243549}}svg.gr-figure:not(.embedded){--math-riemann:#6340a7;--math-ricci:#7650ad;--math-scalar-curvature:#a13f78;--math-weyl:#9a368f;--math-einstein:#553398;--math-volume:#33754c;--math-connection:#275dc5;--math-velocity:#a93458;--math-density:#986000;--math-pressure:#a14c22;--math-action:#635283;--math-coframe:#25774d;--math-torsion:#346a9e}@media(prefers-color-scheme:dark){svg.gr-figure:not(.embedded){--math-riemann:#c3a7ff;--math-ricci:#bc9be9;--math-scalar-curvature:#eea3c9;--math-weyl:#e1a0df;--math-einstein:#bda8ee;--math-volume:#9ad7a6;--math-connection:#91b8ff;--math-velocity:#ffa6bf;--math-density:#f1c572;--math-pressure:#f1af8b;--math-action:#cab6ed;--math-coframe:#8fd9b3;--math-torsion:#92c3ec}}svg.gr-figure .math-detail-riemann{color:var(--math-riemann,#6340a7)}svg.gr-figure .math-detail-ricci{color:var(--math-ricci,#7650ad)}svg.gr-figure .math-detail-scalar-curvature{color:var(--math-scalar-curvature,#a13f78)}svg.gr-figure .math-detail-weyl{color:var(--math-weyl,#9a368f)}svg.gr-figure .math-detail-einstein{color:var(--math-einstein,#553398)}svg.gr-figure .math-detail-volume{color:var(--math-volume,#33754c)}svg.gr-figure .math-detail-connection{color:var(--math-connection,#275dc5)}svg.gr-figure .math-detail-velocity{color:var(--math-velocity,#a93458)}svg.gr-figure .math-detail-density{color:var(--math-density,#986000)}svg.gr-figure .math-detail-pressure{color:var(--math-pressure,#a14c22)}svg.gr-figure .math-detail-action{color:var(--math-action,#635283)}svg.gr-figure .math-detail-coframe{color:var(--math-coframe,#25774d)}svg.gr-figure .math-detail-torsion{color:var(--math-torsion,#346a9e)}</style><defs><marker id="calculation-map-183746" viewBox="0 0 10 10" refX="8" refY="5" markerWidth="7" markerHeight="7" orient="auto-start-reverse"><path d="M0,0 L10,5 L0,10 z" fill="var(--ink,#20262c)"/></marker><marker id="calculation-map-526e7b" viewBox="0 0 10 10" refX="8" refY="5" markerWidth="7" markerHeight="7" orient="auto-start-reverse"><path d="M0,0 L10,5 L0,10 z" fill="var(--muted,#626971)"/></marker><marker id="calculation-map-087f8c" viewBox="0 0 10 10" refX="8" refY="5" markerWidth="7" markerHeight="7" orient="auto-start-reverse"><path d="M0,0 L10,5 L0,10 z" fill="var(--geometry,#007c78)"/></marker><marker id="calculation-map-b95730" viewBox="0 0 10 10" refX="8" refY="5" markerWidth="7" markerHeight="7" orient="auto-start-reverse"><path d="M0,0 L10,5 L0,10 z" fill="var(--observer,#bb365d)"/></marker><marker id="calculation-map-4267a1" viewBox="0 0 10 10" refX="8" refY="5" markerWidth="7" markerHeight="7" orient="auto-start-reverse"><path d="M0,0 L10,5 L0,10 z" fill="var(--transport,#275dc5)"/></marker><marker id="calculation-map-b18225" viewBox="0 0 10 10" refX="8" refY="5" markerWidth="7" markerHeight="7" orient="auto-start-reverse"><path d="M0,0 L10,5 L0,10 z" fill="var(--matter,#a25e00)"/></marker><marker id="calculation-map-d5e2e7" viewBox="0 0 10 10" refX="8" refY="5" markerWidth="7" markerHeight="7" orient="auto-start-reverse"><path d="M0,0 L10,5 L0,10 z" fill="var(--line,#d9dddf)"/></marker></defs><rect class="figure-background" width="100%" height="100%" fill="var(--figure-bg,#f3f4f2)"/><g font-family="Arial, Helvetica, sans-serif" stroke-linejoin="round" stroke-linecap="round"><g data-compact-hide="true"><text x="36.00" y="37.00" font-size="14" fill="var(--muted,#626971)" text-anchor="start" font-weight="650">40 / FROM A QUESTION TO A MEASUREMENT</text></g><g data-mobile-transform="translate(0 -35)"><rect x="45" y="105" width="285" height="125" rx="8" fill="var(--paper,#fffefa)" stroke="var(--line,#d9dddf)"/><svg class="figure-math" data-tex="1" aria-label="1" role="img" x="65" y="125.012" width="9" height="11.988" viewBox="0 -666 500 666" style="color:var(--geometry,#007c78);overflow:visible"><g stroke="currentColor" fill="currentColor" stroke-width="0" transform="scale(1,-1)"><g data-mml-node="math"><g data-mml-node="mn"><path data-c="31" d="M213 578L200 573Q186 568 160 563T102 556H83V602H102Q149 604 189 617T245 641T273 663Q275 666 285 666Q294 666 302 660V361L303 61Q310 54 315 52T339 48T401 46H427V0H416Q395 3 257 3Q121 3 100 0H88V46H114Q136 46 152 46T177 47T193 50T201 52T207 57T213 61V578Z"></path></g></g></g></svg><text x="65.00" y="169.00" font-size="19" fill="var(--ink,#20262c)" text-anchor="start" font-weight="650">Choose a measurement</text><text x="65.00" y="201.00" font-size="15" fill="var(--muted,#626971)" text-anchor="start" font-weight="400">Clock, ray, orbit, or tide</text></g><g data-compact-hide="true"><path d="M336.00,168.00 L358.00,168.00" fill="none" stroke="var(--muted,#626971)" stroke-width="2" marker-end="url(#calculation-map-526e7b)"/></g><g data-compact-only="true"><path d="M187.00,202.00 L187.00,229.00" fill="none" stroke="var(--muted,#626971)" stroke-width="2" marker-end="url(#calculation-map-526e7b)"/></g><g data-mobile-transform="translate(-322 131)"><rect x="367" y="105" width="285" height="125" rx="8" fill="var(--paper,#fffefa)" stroke="var(--line,#d9dddf)"/><svg class="figure-math" data-tex="2" aria-label="2" role="img" x="387" y="125.012" width="9" height="11.988" viewBox="0 -666 500 666" style="color:var(--geometry,#007c78);overflow:visible"><g stroke="currentColor" fill="currentColor" stroke-width="0" transform="scale(1,-1)"><g data-mml-node="math"><g data-mml-node="mn"><path data-c="32" d="M109 429Q82 429 66 447T50 491Q50 562 103 614T235 666Q326 666 387 610T449 465Q449 422 429 383T381 315T301 241Q265 210 201 149L142 93L218 92Q375 92 385 97Q392 99 409 186V189H449V186Q448 183 436 95T421 3V0H50V19V31Q50 38 56 46T86 81Q115 113 136 137Q145 147 170 174T204 211T233 244T261 278T284 308T305 340T320 369T333 401T340 431T343 464Q343 527 309 573T212 619Q179 619 154 602T119 569T109 550Q109 549 114 549Q132 549 151 535T170 489Q170 464 154 447T109 429Z"></path></g></g></g></svg><text x="387.00" y="169.00" font-size="19" fill="var(--ink,#20262c)" text-anchor="start" font-weight="650">Specify the metric</text><text x="387.00" y="201.00" font-size="15" fill="var(--muted,#626971)" text-anchor="start" font-weight="400">Coordinates and units</text></g><g data-compact-hide="true"><path d="M658.00,168.00 L680.00,168.00" fill="none" stroke="var(--muted,#626971)" stroke-width="2" marker-end="url(#calculation-map-526e7b)"/></g><g data-compact-only="true"><path d="M187.00,368.00 L187.00,395.00" fill="none" stroke="var(--muted,#626971)" stroke-width="2" marker-end="url(#calculation-map-526e7b)"/></g><g data-mobile-transform="translate(-644 297)"><rect x="689" y="105" width="285" height="125" rx="8" fill="var(--paper,#fffefa)" stroke="var(--line,#d9dddf)"/><svg class="figure-math" data-tex="3" aria-label="3" role="img" x="709" y="125.03" width="9" height="12.366" viewBox="0 -665 500 687" style="color:var(--geometry,#007c78);overflow:visible"><g stroke="currentColor" fill="currentColor" stroke-width="0" transform="scale(1,-1)"><g data-mml-node="math"><g data-mml-node="mn"><path data-c="33" d="M127 463Q100 463 85 480T69 524Q69 579 117 622T233 665Q268 665 277 664Q351 652 390 611T430 522Q430 470 396 421T302 350L299 348Q299 347 308 345T337 336T375 315Q457 262 457 175Q457 96 395 37T238 -22Q158 -22 100 21T42 130Q42 158 60 175T105 193Q133 193 151 175T169 130Q169 119 166 110T159 94T148 82T136 74T126 70T118 67L114 66Q165 21 238 21Q293 21 321 74Q338 107 338 175V195Q338 290 274 322Q259 328 213 329L171 330L168 332Q166 335 166 348Q166 366 174 366Q202 366 232 371Q266 376 294 413T322 525V533Q322 590 287 612Q265 626 240 626Q208 626 181 615T143 592T132 580H135Q138 579 143 578T153 573T165 566T175 555T183 540T186 520Q186 498 172 481T127 463Z"></path></g></g></g></svg><text x="709.00" y="169.00" font-size="19" fill="var(--ink,#20262c)" text-anchor="start" font-weight="650">Choose the observer</text><text x="709.00" y="201.00" font-size="15" fill="var(--muted,#626971)" text-anchor="start" font-weight="400">Four-velocity or tetrad</text></g><g data-compact-only="true"><path d="M187.00,534.00 L187.00,561.00" fill="none" stroke="var(--muted,#626971)" stroke-width="2" marker-end="url(#calculation-map-526e7b)"/></g><g data-mobile-transform="translate(0 258)"><rect x="45" y="310" width="285" height="125" rx="8" fill="var(--paper,#fffefa)" stroke="var(--line,#d9dddf)"/><svg class="figure-math" data-tex="4" aria-label="4" role="img" x="65" y="329.814" width="9" height="12.186" viewBox="0 -677 500 677" style="color:var(--observer,#bb365d);overflow:visible"><g stroke="currentColor" fill="currentColor" stroke-width="0" transform="scale(1,-1)"><g data-mml-node="math"><g data-mml-node="mn"><path data-c="34" d="M462 0Q444 3 333 3Q217 3 199 0H190V46H221Q241 46 248 46T265 48T279 53T286 61Q287 63 287 115V165H28V211L179 442Q332 674 334 675Q336 677 355 677H373L379 671V211H471V165H379V114Q379 73 379 66T385 54Q393 47 442 46H471V0H462ZM293 211V545L74 212L183 211H293Z"></path></g></g></g></svg><text x="65.00" y="374.00" font-size="19" fill="var(--ink,#20262c)" text-anchor="start" font-weight="650">Use the needed geometry</text><text x="65.00" y="406.00" font-size="15" fill="var(--muted,#626971)" text-anchor="start" font-weight="400">Connection, curvature, or neither</text></g><g data-compact-hide="true"><path d="M336.00,373.00 L358.00,373.00" fill="none" stroke="var(--muted,#626971)" stroke-width="2" marker-end="url(#calculation-map-526e7b)"/></g><g data-compact-only="true"><path d="M187.00,700.00 L187.00,727.00" fill="none" stroke="var(--muted,#626971)" stroke-width="2" marker-end="url(#calculation-map-526e7b)"/></g><g data-mobile-transform="translate(-322 424)"><rect x="367" y="310" width="285" height="125" rx="8" fill="var(--paper,#fffefa)" stroke="var(--line,#d9dddf)"/><svg class="figure-math" data-tex="5" aria-label="5" role="img" x="387" y="330.012" width="9" height="12.383999999999999" viewBox="0 -666 500 688" style="color:var(--observer,#bb365d);overflow:visible"><g stroke="currentColor" fill="currentColor" stroke-width="0" transform="scale(1,-1)"><g data-mml-node="math"><g data-mml-node="mn"><path data-c="35" d="M164 157Q164 133 148 117T109 101H102Q148 22 224 22Q294 22 326 82Q345 115 345 210Q345 313 318 349Q292 382 260 382H254Q176 382 136 314Q132 307 129 306T114 304Q97 304 95 310Q93 314 93 485V614Q93 664 98 664Q100 666 102 666Q103 666 123 658T178 642T253 634Q324 634 389 662Q397 666 402 666Q410 666 410 648V635Q328 538 205 538Q174 538 149 544L139 546V374Q158 388 169 396T205 412T256 420Q337 420 393 355T449 201Q449 109 385 44T229 -22Q148 -22 99 32T50 154Q50 178 61 192T84 210T107 214Q132 214 148 197T164 157Z"></path></g></g></g></svg><text x="387.00" y="374.00" font-size="19" fill="var(--ink,#20262c)" text-anchor="start" font-weight="650">Evaluate the prediction</text><text x="387.00" y="406.00" font-size="15" fill="var(--muted,#626971)" text-anchor="start" font-weight="400">A physical comparison</text></g><g data-compact-hide="true"><path d="M658.00,373.00 L680.00,373.00" fill="none" stroke="var(--muted,#626971)" stroke-width="2" marker-end="url(#calculation-map-526e7b)"/></g><g data-compact-only="true"><path d="M187.00,866.00 L187.00,893.00" fill="none" stroke="var(--muted,#626971)" stroke-width="2" marker-end="url(#calculation-map-526e7b)"/></g><g data-mobile-transform="translate(-644 590)"><rect x="689" y="310" width="285" height="125" rx="8" fill="var(--paper,#fffefa)" stroke="var(--line,#d9dddf)"/><svg class="figure-math" data-tex="6" aria-label="6" role="img" x="709" y="330.012" width="9" height="12.383999999999999" viewBox="0 -666 500 688" style="color:var(--observer,#bb365d);overflow:visible"><g stroke="currentColor" fill="currentColor" stroke-width="0" transform="scale(1,-1)"><g data-mml-node="math"><g data-mml-node="mn"><path data-c="36" d="M42 313Q42 476 123 571T303 666Q372 666 402 630T432 550Q432 525 418 510T379 495Q356 495 341 509T326 548Q326 592 373 601Q351 623 311 626Q240 626 194 566Q147 500 147 364L148 360Q153 366 156 373Q197 433 263 433H267Q313 433 348 414Q372 400 396 374T435 317Q456 268 456 210V192Q456 169 451 149Q440 90 387 34T253 -22Q225 -22 199 -14T143 16T92 75T56 172T42 313ZM257 397Q227 397 205 380T171 335T154 278T148 216Q148 133 160 97T198 39Q222 21 251 21Q302 21 329 59Q342 77 347 104T352 209Q352 289 347 316T329 361Q302 397 257 397Z"></path></g></g></g></svg><text x="709.00" y="374.00" font-size="19" fill="var(--ink,#20262c)" text-anchor="start" font-weight="650">Check a familiar limit</text><text x="709.00" y="406.00" font-size="15" fill="var(--muted,#626971)" text-anchor="start" font-weight="400">Signs, units, and physics</text></g><g data-compact-hide="true"><path d="M831,238 V255.0 Q831,269.0 817,269.0 H201 Q187,269.0 187,283.0 V300" fill="none" stroke="var(--muted,#626971)" stroke-width="2" marker-end="url(#calculation-map-526e7b)"/></g><g data-compact-hide="true"><text x="500.00" y="487.00" font-size="20" fill="var(--ink,#20262c)" text-anchor="middle" font-weight="400">Compute only what your measurement needs.</text></g></g></svg>