<svg class="gr-figure" xmlns="http://www.w3.org/2000/svg" viewBox="0 0 1000 480" width="1000" height="480" role="img" aria-labelledby="free-fall-comparison-title free-fall-comparison-desc"><title id="free-fall-comparison-title">Comparing two free falls</title><desc id="free-fall-comparison-desc">One worldline is compared with a pair of approaching free-fall worldlines, with time increasing upward. The paired experiment measures relative acceleration. Curved drawn paths are coordinate schematics; their appearance alone is not evidence of curvature.</desc><style>.gr-figure [data-compact-only]{display:none}.gr-figure.is-compact [data-compact-only]{display:inline}.gr-figure text{font-family:Manrope,Arial,sans-serif}.gr-figure .math-geometry{color:var(--geometry,#007c78)}.gr-figure .math-curvature{color:var(--curvature,#7951bb)}.gr-figure .math-transport{color:var(--transport,#275dc5)}.gr-figure .math-matter{color:var(--matter,#a25e00)}.gr-figure .math-observer{color:var(--observer,#bb365d)}@media(prefers-color-scheme:dark){svg.gr-figure:not(.embedded){--ink:#ebedf0;--muted:#a8b0bf;--geometry:#64d9c9;--curvature:#bd9cff;--transport:#8bb5ff;--matter:#f3c16e;--observer:#ff99b4;--line:#343e4f;--paper:#141b29;--figure-bg:#192231;--figure-tint:#243549}}svg.gr-figure:not(.embedded){--math-riemann:#6340a7;--math-ricci:#7650ad;--math-scalar-curvature:#a13f78;--math-weyl:#9a368f;--math-einstein:#553398;--math-volume:#33754c;--math-connection:#275dc5;--math-velocity:#a93458;--math-density:#986000;--math-pressure:#a14c22;--math-action:#635283;--math-coframe:#25774d;--math-torsion:#346a9e}@media(prefers-color-scheme:dark){svg.gr-figure:not(.embedded){--math-riemann:#c3a7ff;--math-ricci:#bc9be9;--math-scalar-curvature:#eea3c9;--math-weyl:#e1a0df;--math-einstein:#bda8ee;--math-volume:#9ad7a6;--math-connection:#91b8ff;--math-velocity:#ffa6bf;--math-density:#f1c572;--math-pressure:#f1af8b;--math-action:#cab6ed;--math-coframe:#8fd9b3;--math-torsion:#92c3ec}}svg.gr-figure .math-detail-riemann{color:var(--math-riemann,#6340a7)}svg.gr-figure .math-detail-ricci{color:var(--math-ricci,#7650ad)}svg.gr-figure .math-detail-scalar-curvature{color:var(--math-scalar-curvature,#a13f78)}svg.gr-figure .math-detail-weyl{color:var(--math-weyl,#9a368f)}svg.gr-figure .math-detail-einstein{color:var(--math-einstein,#553398)}svg.gr-figure .math-detail-volume{color:var(--math-volume,#33754c)}svg.gr-figure .math-detail-connection{color:var(--math-connection,#275dc5)}svg.gr-figure .math-detail-velocity{color:var(--math-velocity,#a93458)}svg.gr-figure .math-detail-density{color:var(--math-density,#986000)}svg.gr-figure .math-detail-pressure{color:var(--math-pressure,#a14c22)}svg.gr-figure .math-detail-action{color:var(--math-action,#635283)}svg.gr-figure .math-detail-coframe{color:var(--math-coframe,#25774d)}svg.gr-figure .math-detail-torsion{color:var(--math-torsion,#346a9e)}</style><defs><marker id="free-fall-comparison-183746" viewBox="0 0 10 10" refX="8" refY="5" markerWidth="7" markerHeight="7" orient="auto-start-reverse"><path d="M0,0 L10,5 L0,10 z" fill="var(--ink,#20262c)"/></marker><marker id="free-fall-comparison-526e7b" viewBox="0 0 10 10" refX="8" refY="5" markerWidth="7" markerHeight="7" orient="auto-start-reverse"><path d="M0,0 L10,5 L0,10 z" fill="var(--muted,#626971)"/></marker><marker id="free-fall-comparison-087f8c" viewBox="0 0 10 10" refX="8" refY="5" markerWidth="7" markerHeight="7" orient="auto-start-reverse"><path d="M0,0 L10,5 L0,10 z" fill="var(--geometry,#007c78)"/></marker><marker id="free-fall-comparison-b95730" viewBox="0 0 10 10" refX="8" refY="5" markerWidth="7" markerHeight="7" orient="auto-start-reverse"><path d="M0,0 L10,5 L0,10 z" fill="var(--observer,#bb365d)"/></marker><marker id="free-fall-comparison-4267a1" viewBox="0 0 10 10" refX="8" refY="5" markerWidth="7" markerHeight="7" orient="auto-start-reverse"><path d="M0,0 L10,5 L0,10 z" fill="var(--transport,#275dc5)"/></marker><marker id="free-fall-comparison-b18225" viewBox="0 0 10 10" refX="8" refY="5" markerWidth="7" markerHeight="7" orient="auto-start-reverse"><path d="M0,0 L10,5 L0,10 z" fill="var(--matter,#a25e00)"/></marker><marker id="free-fall-comparison-d5e2e7" viewBox="0 0 10 10" refX="8" refY="5" markerWidth="7" markerHeight="7" orient="auto-start-reverse"><path d="M0,0 L10,5 L0,10 z" fill="var(--line,#d9dddf)"/></marker></defs><rect width="1000" height="480" fill="var(--figure-bg,#f3f4f2)"/><g font-family="Arial, Helvetica, sans-serif" stroke-linejoin="round" stroke-linecap="round"><text x="36.00" y="37.00" font-size="14" fill="var(--muted,#626971)" text-anchor="start" font-weight="650">02 / COMPARING TWO FREE FALLS</text><text x="55.00" y="90.00" font-size="22" fill="var(--geometry,#007c78)" text-anchor="start" font-weight="650">One test body</text><text x="55.00" y="118.00" font-size="17" fill="var(--muted,#626971)" text-anchor="start" font-weight="400">An accelerometer reads zero.</text><text x="545.00" y="90.00" font-size="22" fill="var(--geometry,#007c78)" text-anchor="start" font-weight="650">Two test bodies</text><text x="545.00" y="118.00" font-size="17" fill="var(--muted,#626971)" text-anchor="start" font-weight="400">Their separation can change.</text><path d="M480.00,80.00 L480.00,390.00" fill="none" stroke="var(--line,#d9dddf)" stroke-width="2"/><path d="M115.00,370.00 L390.00,370.00" fill="none" stroke="var(--muted,#626971)" stroke-width="2" marker-end="url(#free-fall-comparison-526e7b)"/><path d="M115.00,370.00 L115.00,160.00" fill="none" stroke="var(--muted,#626971)" stroke-width="2" marker-end="url(#free-fall-comparison-526e7b)"/><text x="390.00" y="405.00" font-size="18" fill="var(--muted,#626971)" text-anchor="end" font-weight="400">position</text><g transform="rotate(-90 75 265.0)"><text x="75.00" y="265.00" font-size="18" fill="var(--muted,#626971)" text-anchor="middle" font-weight="400">time</text></g><path d="M240.00,355.00 L240.56,351.00 L241.12,347.00 L241.68,343.00 L242.24,339.00 L242.80,335.00 L243.35,331.00 L243.91,327.00 L244.46,323.00 L245.01,319.00 L245.56,315.00 L246.11,311.00 L246.66,307.00 L247.20,303.00 L247.74,299.00 L248.27,295.00 L248.81,291.00 L249.34,287.00 L249.86,283.00 L250.39,279.00 L250.90,275.00 L251.42,271.00 L251.93,267.00 L252.43,263.00 L252.93,259.00 L253.42,255.00 L253.91,251.00 L254.40,247.00 L254.87,243.00 L255.34,239.00 L255.81,235.00 L256.27,231.00 L256.72,227.00 L257.17,223.00 L257.61,219.00 L258.04,215.00 L258.46,211.00 L258.88,207.00 L259.29,203.00 L259.69,199.00 L260.09,195.00 L260.47,191.00 L260.85,187.00 L261.22,183.00 L261.58,179.00 L261.93,175.00 L262.28,171.00 L262.61,167.00 L262.94,163.00 L263.25,159.00" stroke="var(--geometry,#007c78)" stroke-width="4" fill="none"/><circle cx="253.00" cy="265.00" r="7.00" stroke="var(--geometry,#007c78)" fill="var(--geometry,#007c78)" stroke-width="2"/><svg class="figure-math" data-tex="0\,\mathrm{g}" aria-label="0 g" role="img" x="280" y="242.684" width="30.342" height="22.672" viewBox="0 -666 1167 872" style="color:var(--geometry,#007c78);overflow:visible"><g stroke="currentColor" fill="currentColor" stroke-width="0" transform="scale(1,-1)"><g data-mml-node="math"><g data-mml-node="mn"><path data-c="30" d="M96 585Q152 666 249 666Q297 666 345 640T423 548Q460 465 460 320Q460 165 417 83Q397 41 362 16T301 -15T250 -22Q224 -22 198 -16T137 16T82 83Q39 165 39 320Q39 494 96 585ZM321 597Q291 629 250 629Q208 629 178 597Q153 571 145 525T137 333Q137 175 145 125T181 46Q209 16 250 16Q290 16 318 46Q347 76 354 130T362 333Q362 478 354 524T321 597Z"></path></g><g data-mml-node="mstyle" transform="translate(500,0)"><g data-mml-node="mspace"></g></g><g data-mml-node="TeXAtom" data-mjx-texclass="ORD" transform="translate(667,0)"><g data-mml-node="mi"><path data-c="67" d="M329 409Q373 453 429 453Q459 453 472 434T485 396Q485 382 476 371T449 360Q416 360 412 390Q410 404 415 411Q415 412 416 414V415Q388 412 363 393Q355 388 355 386Q355 385 359 381T368 369T379 351T388 325T392 292Q392 230 343 187T222 143Q172 143 123 171Q112 153 112 133Q112 98 138 81Q147 75 155 75T227 73Q311 72 335 67Q396 58 431 26Q470 -13 470 -72Q470 -139 392 -175Q332 -206 250 -206Q167 -206 107 -175Q29 -140 29 -75Q29 -39 50 -15T92 18L103 24Q67 55 67 108Q67 155 96 193Q52 237 52 292Q52 355 102 398T223 442Q274 442 318 416L329 409ZM299 343Q294 371 273 387T221 404Q192 404 171 388T145 343Q142 326 142 292Q142 248 149 227T179 192Q196 182 222 182Q244 182 260 189T283 207T294 227T299 242Q302 258 302 292T299 343ZM403 -75Q403 -50 389 -34T348 -11T299 -2T245 0H218Q151 0 138 -6Q118 -15 107 -34T95 -74Q95 -84 101 -97T122 -127T170 -155T250 -167Q319 -167 361 -139T403 -75Z"></path></g></g></g></g></svg><path d="M595.00,370.00 L925.00,370.00" fill="none" stroke="var(--muted,#626971)" stroke-width="2" marker-end="url(#free-fall-comparison-526e7b)"/><path d="M595.00,370.00 L595.00,160.00" fill="none" stroke="var(--muted,#626971)" stroke-width="2" marker-end="url(#free-fall-comparison-526e7b)"/><text x="925.00" y="405.00" font-size="18" fill="var(--muted,#626971)" text-anchor="end" font-weight="400">position</text><g transform="rotate(-90 555 265.0)"><text x="555.00" y="265.00" font-size="18" fill="var(--muted,#626971)" text-anchor="middle" font-weight="400">time</text></g><path d="M690.00,355.00 L690.01,351.00 L690.06,347.00 L690.13,343.00 L690.22,339.00 L690.35,335.00 L690.50,331.00 L690.69,327.00 L690.90,323.00 L691.13,319.00 L691.40,315.00 L691.69,311.00 L692.02,307.00 L692.37,303.00 L692.74,299.00 L693.15,295.00 L693.58,291.00 L694.05,287.00 L694.54,283.00 L695.05,279.00 L695.60,275.00 L696.17,271.00 L696.78,267.00 L697.41,263.00 L698.06,259.00 L698.75,255.00 L699.46,251.00 L700.21,247.00 L700.98,243.00 L701.77,239.00 L702.60,235.00 L703.45,231.00 L704.34,227.00 L705.25,223.00 L706.18,219.00 L707.15,215.00 L708.14,211.00 L709.17,207.00 L710.22,203.00 L711.29,199.00 L712.40,195.00 L713.53,191.00 L714.70,187.00 L715.89,183.00 L717.10,179.00 L718.35,175.00 L719.62,171.00 L720.93,167.00 L722.26,163.00 L723.61,159.00" stroke="var(--geometry,#007c78)" stroke-width="4" fill="none"/><path d="M830.00,355.00 L829.99,351.00 L829.94,347.00 L829.87,343.00 L829.78,339.00 L829.65,335.00 L829.50,331.00 L829.31,327.00 L829.10,323.00 L828.87,319.00 L828.60,315.00 L828.31,311.00 L827.98,307.00 L827.63,303.00 L827.26,299.00 L826.85,295.00 L826.42,291.00 L825.95,287.00 L825.46,283.00 L824.95,279.00 L824.40,275.00 L823.83,271.00 L823.22,267.00 L822.59,263.00 L821.94,259.00 L821.25,255.00 L820.54,251.00 L819.79,247.00 L819.02,243.00 L818.23,239.00 L817.40,235.00 L816.55,231.00 L815.66,227.00 L814.75,223.00 L813.82,219.00 L812.85,215.00 L811.86,211.00 L810.83,207.00 L809.78,203.00 L808.71,199.00 L807.60,195.00 L806.47,191.00 L805.30,187.00 L804.11,183.00 L802.90,179.00 L801.65,175.00 L800.38,171.00 L799.07,167.00 L797.74,163.00 L796.39,159.00" stroke="var(--geometry,#007c78)" stroke-width="4" fill="none"/><path d="M690.00,350.00 L830.00,350.00" fill="none" stroke="var(--observer,#bb365d)" stroke-width="2" marker-end="url(#free-fall-comparison-b95730)"/><text x="760.00" y="335.00" font-size="17" fill="var(--observer,#bb365d)" text-anchor="middle" font-weight="400">initial gap</text><path d="M725.00,156.00 L795.00,156.00" fill="none" stroke="var(--observer,#bb365d)" stroke-width="2" marker-end="url(#free-fall-comparison-b95730)"/><text x="822.00" y="166.00" font-size="17" fill="var(--observer,#bb365d)" text-anchor="start" font-weight="400">smaller gap</text><text x="55.00" y="440.00" font-size="19" fill="var(--muted,#626971)" text-anchor="start" font-weight="400">A schematic of tangential convergence near Earth. Neither observer feels a local force.</text></g></svg>